/* XPM */
static char *lc_circuits1[] = {
/* columns rows colors chars-per-pixel */
"32 32 215 2 ",
"   c #2E0404",
".  c #2B0409",
"X  c #2A050A",
"o  c #320701",
"O  c #330B05",
"+  c #340D0A",
"@  c #350708",
"#  c #2E170F",
"$  c #34130C",
"%  c #3A130C",
"&  c #341A0E",
"*  c #3C1908",
"=  c #361307",
"-  c #3C0F12",
";  c #3D1A13",
":  c #361713",
">  c #3D2519",
",  c #44190C",
"<  c #4B190B",
"1  c #43130C",
"2  c #5A1A08",
"3  c #441C13",
"4  c #481915",
"5  c #531D18",
"6  c #681D04",
"7  c #5D270F",
"8  c #442212",
"9  c #4D2214",
"0  c #4B251C",
"q  c #47271B",
"w  c #562314",
"e  c #5D2A19",
"r  c #54291B",
"t  c #59351B",
"y  c #4A280D",
"u  c #69220B",
"i  c #69280A",
"p  c #742B0B",
"a  c #7A280B",
"s  c #73310E",
"d  c #692913",
"f  c #602312",
"g  c #6B331D",
"h  c #6A3818",
"j  c #743219",
"k  c #773C1F",
"l  c #7A3715",
"z  c #432D23",
"x  c #5B2421",
"c  c #522925",
"v  c #4A3329",
"b  c #4B3328",
"n  c #5A3428",
"m  c #453730",
"M  c #563B34",
"N  c #602D20",
"B  c #663824",
"V  c #6D3D29",
"C  c #663925",
"Z  c #793B28",
"A  c #603D34",
"S  c #733F32",
"D  c #784014",
"F  c #4F4135",
"G  c #5C4335",
"H  c #6E432B",
"J  c #7A452A",
"K  c #744028",
"L  c #6C4A3A",
"P  c #664438",
"I  c #724C35",
"U  c #764736",
"Y  c #7A573B",
"T  c #5B4A41",
"R  c #594741",
"E  c #624C42",
"W  c #644740",
"Q  c #735144",
"!  c #765B4A",
"~  c #6F5A53",
"^  c #7A5B55",
"/  c #66574D",
"(  c #7E644B",
")  c #746359",
"_  c #7E655E",
"`  c #832E0E",
"'  c #84310E",
"]  c #8C350E",
"[  c #833311",
"{  c #8D3513",
"}  c #843B1B",
"|  c #8A3A18",
" . c #8C3A15",
".. c #913D1A",
"X. c #923D15",
"o. c #863A20",
"O. c #8E431D",
"+. c #88471E",
"@. c #95461C",
"#. c #9B4A1F",
"$. c #974219",
"%. c #96511E",
"&. c #A24F1D",
"*. c #A5511E",
"=. c #8F4427",
"-. c #844D26",
";. c #8D4823",
":. c #8A422A",
">. c #86472C",
",. c #9D4525",
"<. c #954B24",
"1. c #9E4C24",
"2. c #934928",
"3. c #9C4B29",
"4. c #924423",
"5. c #925024",
"6. c #93512B",
"7. c #9C532C",
"8. c #995E2E",
"9. c #8A4B31",
"0. c #984E30",
"q. c #8A553C",
"w. c #8E5532",
"e. c #945433",
"r. c #9D5534",
"t. c #92563D",
"y. c #98563C",
"u. c #995A3A",
"i. c #A24C23",
"p. c #A34E2A",
"a. c #A65427",
"s. c #A4532C",
"d. c #AD562C",
"f. c #A95631",
"g. c #A2553B",
"h. c #A75B37",
"j. c #B15C33",
"k. c #A7643A",
"l. c #BC663F",
"z. c #B6663B",
"x. c #C06A31",
"c. c #8C5941",
"v. c #8B5D48",
"b. c #875E4D",
"n. c #9A5741",
"m. c #965C43",
"M. c #965E4B",
"N. c #985842",
"B. c #AB5D48",
"V. c #88604E",
"C. c #846455",
"Z. c #8C6654",
"A. c #9A6751",
"S. c #977356",
"D. c #9E6747",
"F. c #A86440",
"G. c #BA6544",
"H. c #B26940",
"J. c #B76E49",
"K. c #B97042",
"L. c #A27B5D",
"P. c #BE7F5C",
"I. c #BD7353",
"U. c #A77245",
"Y. c #866C63",
"T. c #8F7566",
"R. c #837369",
"E. c #8B716E",
"W. c #937B6D",
"Q. c #997567",
"!. c #8E7A73",
"~. c #967C74",
"^. c #C16B45",
"/. c #C67343",
"(. c #C9764B",
"). c #CD7A52",
"_. c #C97A58",
"`. c #B38D5F",
"'. c #9A816D",
"]. c #8E867B",
"[. c #9D857B",
"{. c #A28579",
"}. c #AB9375",
"|. c #D4814E",
" X c #CB805D",
".X c #DB8859",
"XX c #D78766",
"oX c #CD9C7C",
"OX c #D18D6E",
"+X c #E28B64",
"@X c #E09166",
"#X c #E59971",
"$X c #9F8985",
"%X c #A48B80",
"&X c #AB928A",
"*X c #A6978E",
"=X c #B59985",
"-X c #A59994",
";X c #B39D98",
":X c #AEA299",
">X c #ACA5A1",
",X c #BCABA5",
"<X c #BAACAA",
"1X c #BCB6B0",
"2X c #CAA893",
"3X c #CAA588",
"4X c #D7BAAE",
"5X c #C6BBB3",
"6X c #C9B8B4",
"7X c #D6BFBC",
"8X c #D4C4B3",
"9X c #E9C9B0",
"0X c #E1D2CE",
"qX c #F8DCCB",
"wX c None",
/* pixels */
"wXwXwXwXwXwXwXwXwXwXwXwXwXwXwXwXwXwXwXwXwXwXwXwXwXwXwXwXwXwXwXwX",
"wXwXwXwXwXwXwXwXwXwXwXwXwXwXwXwXwXwXwXwXwXwXwXwXwXwXwXwXwXwXwXwX",
"wXwXwXwXwXwXwX8X'.b > M !.wXwXwXwXwXwXwXwXwXwXwXwXwXwXwXwXwXwXwX",
"wXwXwXwXwXwX}.S.K U I 8 ; z ) wXwXwXwXwXwXwXwXwXwXwXwXwXwXwXwXwX",
"wXwXwXwXwX=X`.8.D 8.K K C * 8 v / wXwXwXwXwXwXwXwXwXwXwXwXwXwXwX",
"wXwXwXwX8XS.U.5.k.5.+.8.h K H * & m R ;XwXwXwXwXwXwXwXwXwXwXwXwX",
"wXwXwXwX2XJ l %.z.} K.5.s e.h B J * : b T wXwXwXwXwXwXwXwXwXwXwX",
"wXwXwXqXoX5.J.@.l 2.z.O.z.<.s u.Z h U , = z F ].wXwXwXwXwXwXwXwX",
"wXwXwX9X`.x..X&.f.| ` #./.O.h.r.p y.>.7 B 8 & > T wXwXwXwXwXwXwX",
"wXwXwX3Xz..Xx./.).` f...a | J.} 2.u.i >.N.< 9 0 & # E wXwXwXwXwX",
"wXwXwX`.%.).*..X(.G.).` f.=.a o.I.e.l D.j j M.N O = & # m -XwXwX",
"wXwXwXS.5.k.$.).j.+X^.d..X| =...} s k.F.p =.Z 2 Z U * > M ~ *XwX",
"wXwX2Xm.7.s.#.a.i.@Xa.|.x.a.)...a =.o.} 2. Xj j m.e 9 A P W !.wX",
"! L U t.3.3.#.#.@.l.$.).*.(.).{ (.p.6 Z :.o.u n.A.e 0 3 : n R.wX",
"V B B m.g.g.1.i.#.i.$.z.] .Xx.f.+X..i.B.f 2 o.n.Z 5 + 1 O q _ wX",
"W.%XT.Z.M.y.g.p.i.i.#.1.' K...^.(.X.XXg.6 y.9.f r % ; 0 O c Y.wX",
"7X0X5X*XW.V.c.r.s.a.i.3...3.a G.p.f.#Xo.r.3Xj 5 4 + 3 ; : M ~.wX",
"wXwXwXwX:X[.V.q.r.7.7.p.4.7.| j.` j.).| _.P.2 4 @ % $ @ 4 L =XwX",
"wXwXwXwXwXwX*XT.v.t.r.7.<.3.O.k.` p...{ OX9.5 4 + X X o 3 ^ 6XwX",
"wXwXwXwXwXwXwXwX{.Z.q.t.e.<.@.f.{ p.` p._.d 5 @ @ . . @ 3 ~.wXwX",
"wXwXwXwXwXwXwXwXwXwX~.V.q.e.<.s.{ p.{ G.g.2 5 x 4     $ R 1XwXwX",
"wXwXwXwXwXwXwXwXwXwX6X&XZ.c.9.r.| p.3. Xo.x 5 U 5 1 8 8 _ 7XwXwX",
"wXwXwXwXwXwXwXwXwXwXwXwX,X%XV.q.9.3.H.J.x c - 1 1 v.I E -XwXwXwX",
"wXwXwXwXwXwXwXwXwXwXwXwXwXwX;XS.q.;.7.h 0 : . o < V L '.wXwXwXwX",
"wXwXwXwXwXwXwXwXwXwXwXwXwXwXwX8XA.-.6.d n ; = % , c _ wXwXwXwXwX",
"wXwXwXwXwXwXwXwXwXwXwXwXwXwXwX}.Y D.J V P n q q P E.,XwXwXwXwXwX",
"wXwXwXwXwXwXwXwXwXwXwXwXwXwX( I C C L Y.Y.~ ) R.;X7XwXwXwXwXwXwX",
"wXwXwXwXwXwXwXwXwXwXwXwXwXwXY H 9 P ~.wXwX>X1X5XwXwXwXwXwXwXwXwX",
"wXwXwXwXwXwXwXwXwXwXwXwX^ ( t 9 Q $XwXwXwXwXwXwXwXwXwXwXwXwXwXwX",
"wXwXwXwXwXwXwXwXwXwXwXwXY n r ^ *XwXwXwXwXwXwXwXwXwXwXwXwXwXwXwX",
"wXwXwXwXwXwXwXwXwXwXP I t r ^ -XwXwXwXwXwXwXwXwXwXwXwXwXwXwXwXwX",
"wXwXwXwXwXwXwXwXwXG G r q ^ ;XwXwXwXwXwXwXwXwXwXwXwXwXwXwXwXwXwX"
};
