/* XPM */
static char *power_supplies1[] = {
/* columns rows colors chars-per-pixel */
"32 32 177 2 ",
"   c #151314",
".  c #1D1B1B",
"X  c #1C1917",
"o  c #221E1D",
"O  c #2D1F1E",
"+  c #361711",
"@  c #3D1F19",
"#  c #2B211E",
"$  c #3F2117",
"%  c #211E20",
"&  c #292422",
"*  c #2D2825",
"=  c #352220",
"-  c #3B2924",
";  c #372B28",
":  c #3D2F2B",
">  c #32302D",
",  c #3C3533",
"<  c #3E3A36",
"1  c #531F12",
"2  c #47291F",
"3  c #4A231C",
"4  c #5B2316",
"5  c #5D261B",
"6  c #662013",
"7  c #6C281A",
"8  c #6E2416",
"9  c #7F2814",
"0  c #732D1B",
"q  c #7A2816",
"w  c #7E311E",
"e  c #4B2922",
"r  c #472C28",
"t  c #422B23",
"y  c #592822",
"u  c #4F3226",
"i  c #5D3022",
"p  c #55352B",
"a  c #5A322B",
"s  c #4C3732",
"d  c #473B37",
"f  c #653328",
"g  c #6A3627",
"h  c #7C3823",
"j  c #773625",
"k  c #643E35",
"l  c #4B433D",
"z  c #5D443B",
"x  c #55423C",
"c  c #6F483C",
"v  c #6E4539",
"b  c #714038",
"n  c #7E473A",
"m  c #784838",
"M  c #4D4543",
"N  c #444341",
"B  c #5B4943",
"V  c #584D4A",
"C  c #59514C",
"Z  c #4B4B50",
"A  c #585450",
"S  c #585556",
"D  c #625047",
"F  c #67554C",
"G  c #655B52",
"H  c #705E55",
"J  c #7B675E",
"K  c #6F6260",
"L  c #666461",
"P  c #7B6C64",
"I  c #726264",
"U  c #7B7172",
"Y  c #8C2C16",
"T  c #952B10",
"R  c #9E3B1C",
"E  c #AB3E1E",
"W  c #A23B1E",
"Q  c #B63F17",
"!  c #B93D15",
"~  c #883622",
"^  c #833D2B",
"/  c #933C27",
"(  c #AB3F26",
")  c #BB491E",
"_  c #9F4529",
"`  c #894738",
"'  c #834632",
"]  c #AC4322",
"[  c #A1412B",
"{  c #A64B2B",
"}  c #AC492A",
"|  c #B64724",
" . c #B84D28",
".. c #BE5228",
"X. c #AC4F30",
"o. c #AF5A3A",
"O. c #A35034",
"+. c #B55B37",
"@. c #C54C1B",
"#. c #C6541F",
"$. c #C44D24",
"%. c #C6592F",
"&. c #C15528",
"*. c #D15621",
"=. c #D05E2B",
"-. c #C65D34",
";. c #CF673A",
":. c #D16732",
">. c #D36F3B",
",. c #D2713F",
"<. c #815645",
"1. c #905441",
"2. c #9C5D40",
"3. c #8B6656",
"4. c #9C6651",
"5. c #B76846",
"6. c #A56553",
"7. c #A76E54",
"8. c #B2765A",
"9. c #846963",
"0. c #82766D",
"q. c #987A66",
"w. c #806F73",
"e. c #867772",
"r. c #857E77",
"t. c #8F7B74",
"y. c #A27A68",
"u. c #AD7A63",
"i. c #C26B43",
"p. c #CF7048",
"a. c #D77543",
"s. c #83817B",
"d. c #93857B",
"f. c #978B7E",
"g. c #A08D7F",
"h. c #EA955F",
"j. c #C5957C",
"k. c #E9A373",
"l. c #8C8A86",
"z. c #958E86",
"x. c #928F8A",
"c. c #93928C",
"v. c #9E9289",
"b. c #999997",
"n. c #A09186",
"m. c #A89284",
"M. c #A79788",
"N. c #AD9588",
"B. c #A19D96",
"V. c #A29E9A",
"C. c #ACA08E",
"Z. c #A5A29D",
"A. c #ABA196",
"S. c #B9A796",
"D. c #B4A79C",
"F. c #A7A5A1",
"G. c #A9A5A0",
"H. c #ABAAA4",
"J. c #B4ACA3",
"K. c #B3AEAA",
"L. c #B8B6A7",
"P. c #B5B1AB",
"I. c #BCB6AE",
"U. c #BCB8AD",
"Y. c #B3B1A5",
"T. c #B5B3B1",
"R. c #BBB6B2",
"E. c #BEBCB2",
"W. c #BCB8B8",
"Q. c #C0B09E",
"!. c #C2BEB4",
"~. c #C5C1B7",
"^. c #C6C2BA",
"/. c #CAC9BC",
"(. c #CECCC4",
"). c #D2CCC6",
"_. c None",
/* pixels */
"_._._._._._._._._._._._._._._._._._._._._._._._._._._._._._.T.W.",
"_._._._._._._._._._._._._._._._._._._._._._._._._._._._._._.R.P.",
"_._._._._._._._._._._._._._._._._._._._._._._._._._._._.F.F.P.!.",
"_._._._._._._._._._._._._._._._._._._._._._._._._._._._.T.R./.E.",
"_._._._._._._._._._._._._._._._._._._._._._._._._._.b.P.~.~._._.",
"_._._._._._._._._._._._._._._._._._._._._._._._._._.V.A.~.E._._.",
"_._._._._._._._._._._._._._._._._._._._._._._._.).R.J.^._._._._.",
"_._._._._._._._._._._._._._._._._._.d * , U P I.).K.!.E._._._._.",
"_._._._._._._._._._._._._._._._._., o o Z S & C v.!.E._._._._._.",
"_._._._._._._._._._._._._._._._.d.J e # %     . l V._._._._._._.",
"_._._._._._._._._._._._._._._.z.S.8.~ 7 +   X . O C _._._._._._.",
"_._._._._._._._._._._._._._.0.U 6.] ) Q 8 @ O o . * A _._._._._.",
"_._._._._._._._._._._._._.G n.6.] $.*.!  .O.e o o & S _._._._._.",
"_._._._._._._._._._._._.n.r.J ` w W Q $.-.X.g O # > L _._._._._.",
"_._._._._._._._._._._.J e.N.9.r @ 1 0 } / 5 i - & N _._._._._._.",
"_._._._._._._._._._.V B c n f 4 f v a y 3 e p ; < _._._._._._._.",
"_._._._._._._._._.C.I b m 5 8 q / 1.k = # ; d M _._._._._._._._.",
"_._._._._._._._.M.Q.u./ 0 6 Y ]  .^ r s r & , _._._._._._._._._.",
"_._._._._._._.d.z.j.} &. .T | -.[ 5 a B d M _._._._._._._._._._.",
"_._._._._._._.d.3.+.p.h.#.) >.:.} w g s d _._._._._._._._._._._.",
"_._._._._._._._.y.5.k.a.@.>.>...W j p B _._._._._._._._._._._._.",
"_._._._._._._._.m.7.i.%.=.:...] h 2 D _._._._._._._._._._._._._.",
"_._._._._._._._.z.P 4.+.%...E ' u x _._._._._._._._._._._._._._.",
"_._._._._._._.K.l.s.m.2.{ [ ' z F t._._._._._._._._._._._._._._.",
"_._._._._._.l.c.x.Y.N.q.<.c H d._._._._._._._._._._._._._._._._.",
"_._._._._._.l.V.U.J._._.D.J _._._._._._._._._._._._._._._._._._.",
"_._._._.c.c.Z.U.U._._._._._._._._._._._._._._._._._._._._._._._.",
"_._._._.c.v.U.~._._._._._._._._._._._._._._._._._._._._._._._._.",
"_._.c.Z.b.L./._._._._._._._._._._._._._._._._._._._._._._._._._.",
"_._.F.V.U./._._._._._._._._._._._._._._._._._._._._._._._._._._.",
"H.H.G.E./._._._._._._._._._._._._._._._._._._._._._._._._._._._.",
"F.F.E.(._._._._._._._._._._._._._._._._._._._._._._._._._._._._."
};
