/* XPM */
static char * power_supplies_xpm[] = {
"48 48 631 2",
"  	c None",
". 	c #B1AEB0",
"+ 	c #C8C5C7",
"@ 	c #A4A4A5",
"# 	c #D3CFCD",
"$ 	c #A49E9C",
"% 	c #A8A8A6",
"& 	c #D6D3D0",
"* 	c #A29D94",
"= 	c #C0BCB2",
"- 	c #979893",
"; 	c #B4B4AD",
"> 	c #9B988F",
", 	c #BBB6AC",
"' 	c #CCC7BE",
") 	c #9D9D98",
"! 	c #C6C5BE",
"~ 	c #9C978D",
"{ 	c #C9C7C0",
"] 	c #CBCAC2",
"^ 	c #B9B7AD",
"/ 	c #A9A8A7",
"( 	c #CBC8C4",
"_ 	c #A29E99",
": 	c #CCC7BF",
"< 	c #D3D0C7",
"[ 	c #B9B9AD",
"} 	c #989999",
"| 	c #E1DFDD",
"1 	c #BAB6B1",
"2 	c #D0CBC7",
"3 	c #CBC9BE",
"4 	c #B9B5AC",
"5 	c #A5A5A5",
"6 	c #9A9996",
"7 	c #948D86",
"8 	c #C8C3BC",
"9 	c #C7C3B9",
"0 	c #B7B8A7",
"a 	c #A9A9A8",
"b 	c #B0ABA6",
"c 	c #84786F",
"d 	c #BFB6AD",
"e 	c #C9C5BB",
"f 	c #C1BDB4",
"g 	c #C7C3BE",
"h 	c #CDC8C3",
"i 	c #928A83",
"j 	c #D2C8BF",
"k 	c #CFC9BF",
"l 	c #BFBFB2",
"m 	c #76716D",
"n 	c #332E2A",
"o 	c #261F1C",
"p 	c #332A27",
"q 	c #736866",
"r 	c #A79A96",
"s 	c #BEBAB3",
"t 	c #E1DAD6",
"u 	c #918881",
"v 	c #C9C0B9",
"w 	c #CCC8C0",
"x 	c #BBB9AF",
"y 	c #504C48",
"z 	c #1D1914",
"A 	c #1A1915",
"B 	c #201E1E",
"C 	c #786F72",
"D 	c #988F92",
"E 	c #64544E",
"F 	c #82766D",
"G 	c #E4E1D8",
"H 	c #EBE7DD",
"I 	c #AAA198",
"J 	c #B5AFA7",
"K 	c #C6C2B6",
"L 	c #BAB9AC",
"M 	c #4B4642",
"N 	c #18130F",
"O 	c #1C1914",
"P 	c #191917",
"Q 	c #414147",
"R 	c #9A999F",
"S 	c #5E5D62",
"T 	c #251C1B",
"U 	c #2B1F1C",
"V 	c #877C70",
"W 	c #A99B92",
"X 	c #C0B6AD",
"Y 	c #C5C1B8",
"Z 	c #BAB8AD",
"` 	c #554E48",
" .	c #231915",
"..	c #29201E",
"+.	c #231918",
"@.	c #1F1F1D",
"#.	c #3F3F46",
"$.	c #1F1F23",
"%.	c #131317",
"&.	c #191719",
"*.	c #191618",
"=.	c #281B19",
"-.	c #53443E",
";.	c #B5ABA2",
">.	c #BCB7B0",
",.	c #C6C4BF",
"'.	c #8A8272",
").	c #ACA89B",
"!.	c #977E71",
"~.	c #532824",
"{.	c #4D2D29",
"].	c #34221F",
"^.	c #181416",
"/.	c #121213",
"(.	c #141413",
"_.	c #141414",
":.	c #171717",
"<.	c #1A1B17",
"[.	c #25211C",
"}.	c #6A5E5A",
"|.	c #C4BEB9",
"1.	c #958A7B",
"2.	c #B0A698",
"3.	c #CDBAA5",
"4.	c #B87856",
"5.	c #863723",
"6.	c #6E2C20",
"7.	c #581E14",
"8.	c #321911",
"9.	c #14100F",
"0.	c #121112",
"a.	c #171516",
"b.	c #1E1D1E",
"c.	c #1F201C",
"d.	c #221D1A",
"e.	c #2D221E",
"f.	c #847F7A",
"g.	c #817872",
"h.	c #97908F",
"i.	c #D1C3B3",
"j.	c #B97554",
"k.	c #99371B",
"l.	c #9B331B",
"m.	c #A0391A",
"n.	c #93301C",
"o.	c #5F1F13",
"p.	c #2E150F",
"q.	c #171514",
"r.	c #221D20",
"s.	c #282324",
"t.	c #241F21",
"u.	c #231D1E",
"v.	c #241E1E",
"w.	c #36312D",
"x.	c #78736F",
"y.	c #6E5E4F",
"z.	c #8A8385",
"A.	c #503E53",
"B.	c #985643",
"C.	c #A3391A",
"D.	c #AC3A19",
"E.	c #BF491A",
"F.	c #D6612D",
"G.	c #B43C1B",
"H.	c #8C240E",
"I.	c #5E210C",
"J.	c #3B2219",
"K.	c #292121",
"L.	c #282325",
"M.	c #1F1A1B",
"N.	c #201A1C",
"O.	c #221C1C",
"P.	c #27221E",
"Q.	c #4B4744",
"R.	c #6C5F56",
"S.	c #AE9F90",
"T.	c #CBB5A3",
"U.	c #985244",
"V.	c #AC4028",
"W.	c #B54224",
"X.	c #C5501F",
"Y.	c #E2692D",
"Z.	c #C94E1C",
"`.	c #B1300D",
" +	c #B03A17",
".+	c #BA5733",
"++	c #954833",
"@+	c #4B2920",
"#+	c #211C1B",
"$+	c #1D1B19",
"%+	c #1D1B1C",
"&+	c #221E1D",
"*+	c #292320",
"=+	c #34302D",
"-+	c #B9B9B9",
";+	c #7C7169",
">+	c #39322B",
",+	c #90877F",
"'+	c #AA725A",
")+	c #A13A22",
"!+	c #AC4027",
"~+	c #BE4727",
"{+	c #DA5B2E",
"]+	c #CD511D",
"^+	c #B3360C",
"/+	c #B63D18",
"(+	c #D06139",
"_+	c #DC734C",
":+	c #C05D3B",
"<+	c #763720",
"[+	c #321D1B",
"}+	c #201C1B",
"|+	c #1F1F1F",
"1+	c #21201E",
"2+	c #2D2824",
"3+	c #5B5855",
"4+	c #A18E82",
"5+	c #AB9E93",
"6+	c #95918D",
"7+	c #574A47",
"8+	c #875B52",
"9+	c #863F34",
"0+	c #682217",
"a+	c #6F2213",
"b+	c #A53A1F",
"c+	c #AE3612",
"d+	c #BB4017",
"e+	c #CE5C37",
"f+	c #C1552E",
"g+	c #BD5633",
"h+	c #9A4024",
"i+	c #81402A",
"j+	c #472720",
"k+	c #29201D",
"l+	c #231F1C",
"m+	c #262422",
"n+	c #292826",
"o+	c #7B7A78",
"p+	c #8F8180",
"q+	c #867673",
"r+	c #CBC1B8",
"s+	c #BAAA9D",
"t+	c #A59390",
"u+	c #644F4D",
"v+	c #291512",
"w+	c #4F2215",
"x+	c #511507",
"y+	c #6A200C",
"z+	c #C05839",
"A+	c #B84D2D",
"B+	c #B04829",
"C+	c #873320",
"D+	c #4F1F16",
"E+	c #683121",
"F+	c #512F22",
"G+	c #322923",
"H+	c #251F1B",
"I+	c #1F1C19",
"J+	c #565656",
"K+	c #766763",
"L+	c #3E302E",
"M+	c #473D3E",
"N+	c #74574C",
"O+	c #9B6750",
"P+	c #8E6258",
"Q+	c #4A2420",
"R+	c #401D16",
"S+	c #36241F",
"T+	c #58342B",
"U+	c #481F16",
"V+	c #3F1E15",
"W+	c #652E22",
"X+	c #913C29",
"Y+	c #833424",
"Z+	c #451F19",
"`+	c #391A18",
" @	c #613022",
".@	c #52372E",
"+@	c #2F2623",
"@@	c #211D19",
"#@	c #5B5A57",
"$@	c #635955",
"%@	c #3A2B27",
"&@	c #7A6656",
"*@	c #73483A",
"=@	c #874230",
"-@	c #773C31",
";@	c #5B221B",
">@	c #581E12",
",@	c #6E291A",
"'@	c #5A2214",
")@	c #936A5A",
"!@	c #744A3E",
"~@	c #6B3933",
"{@	c #422624",
"]@	c #472121",
"^@	c #3D1D1A",
"/@	c #321F19",
"(@	c #603329",
"_@	c #653D35",
":@	c #40302D",
"<@	c #271D1C",
"[@	c #4A4541",
"}@	c #DBD4C1",
"|@	c #978A7C",
"1@	c #605B5F",
"2@	c #4E3D4A",
"3@	c #70392D",
"4@	c #95543E",
"5@	c #75433B",
"6@	c #4C2120",
"7@	c #5F1D12",
"8@	c #893621",
"9@	c #621707",
"0@	c #9E331D",
"a@	c #A5513E",
"b@	c #7C5441",
"c@	c #8C584C",
"d@	c #4B2A26",
"e@	c #2F1E20",
"f@	c #2A1E1D",
"g@	c #30211D",
"h@	c #523833",
"i@	c #403030",
"j@	c #382D2C",
"k@	c #584E4C",
"l@	c #A29280",
"m@	c #BCAE9C",
"n@	c #B0A4A2",
"o@	c #773F3B",
"p@	c #8B4033",
"q@	c #7B4130",
"r@	c #4C231C",
"s@	c #521B14",
"t@	c #7D2816",
"u@	c #862813",
"v@	c #953017",
"w@	c #BD4D32",
"x@	c #AD4E36",
"y@	c #8F513F",
"z@	c #4B3025",
"A@	c #3A2620",
"B@	c #362322",
"C@	c #322321",
"D@	c #2B2320",
"E@	c #221C1A",
"F@	c #312927",
"G@	c #695E5D",
"H@	c #9C8C7E",
"I@	c #B8A698",
"J@	c #CDC1B0",
"K@	c #C49670",
"L@	c #993B1E",
"M@	c #9D412F",
"N@	c #6B2517",
"O@	c #5C1B0D",
"P@	c #742315",
"Q@	c #882A15",
"R@	c #A4381A",
"S@	c #BD4F28",
"T@	c #B7512C",
"U@	c #AA4D35",
"V@	c #6B2C21",
"W@	c #2F1F17",
"X@	c #46312E",
"Y@	c #614641",
"Z@	c #54403A",
"`@	c #26211D",
" #	c #211B17",
".#	c #3E3332",
"+#	c #A39791",
"@#	c #8B7C70",
"##	c #D5C4B6",
"$#	c #CEA589",
"%#	c #A44924",
"&#	c #A83818",
"*#	c #BD481D",
"=#	c #BA5124",
"-#	c #993119",
";#	c #83210C",
">#	c #AA3517",
",#	c #C3532F",
"'#	c #C05A31",
")#	c #B1512B",
"!#	c #80341D",
"~#	c #451E16",
"{#	c #43221B",
"]#	c #7F5F54",
"^#	c #57433E",
"/#	c #433730",
"(#	c #35322E",
"_#	c #57504D",
":#	c #85796B",
"<#	c #68554D",
"[#	c #C29D88",
"}#	c #B45935",
"|#	c #A83210",
"1#	c #C55126",
"2#	c #EF9659",
"3#	c #E9833D",
"4#	c #A9320B",
"5#	c #AB350E",
"6#	c #C8592B",
"7#	c #D67347",
"8#	c #D1663F",
"9#	c #BF5531",
"0#	c #702712",
"a#	c #562112",
"b#	c #76342C",
"c#	c #633E35",
"d#	c #43352F",
"e#	c #3A2724",
"f#	c #786F6D",
"g#	c #A49386",
"h#	c #7C594B",
"i#	c #95563D",
"j#	c #AF4624",
"k#	c #CD6A3E",
"l#	c #F8B791",
"m#	c #F1A76C",
"n#	c #BF4712",
"o#	c #B1350B",
"p#	c #CA5B2C",
"q#	c #D87F48",
"r#	c #D47845",
"s#	c #C95F32",
"t#	c #C14E27",
"u#	c #9D3A22",
"v#	c #863622",
"w#	c #793A2A",
"x#	c #50372E",
"y#	c #40302B",
"z#	c #4F3938",
"A#	c #C1B5A7",
"B#	c #9A7866",
"C#	c #9D5941",
"D#	c #BD633C",
"E#	c #F7BF90",
"F#	c #F9C393",
"G#	c #CB5A24",
"H#	c #B93A0B",
"I#	c #C95925",
"J#	c #DD7945",
"K#	c #D67945",
"L#	c #CC6635",
"M#	c #C35123",
"N#	c #AD411B",
"O#	c #8D331C",
"P#	c #7E3C2A",
"Q#	c #5E3A2B",
"R#	c #46322D",
"S#	c #6F625D",
"T#	c #AF9E90",
"U#	c #AC7963",
"V#	c #BB6844",
"W#	c #E1935E",
"X#	c #CF6F3C",
"Y#	c #C85126",
"Z#	c #CD4E21",
"`#	c #DB7139",
" $	c #D97640",
".$	c #CC6738",
"+$	c #C05327",
"@$	c #B13F19",
"#$	c #9A3717",
"$$	c #6F3124",
"%$	c #5A3026",
"&$	c #412C1D",
"*$	c #56403A",
"=$	c #C0B5AB",
"-$	c #8A6959",
";$	c #AB6D53",
">$	c #BA613C",
",$	c #BD5832",
"'$	c #C95A30",
")$	c #CE5C28",
"!$	c #D1662F",
"~$	c #CF632E",
"{$	c #BE5027",
"]$	c #AE401C",
"^$	c #9E3819",
"/$	c #8F432B",
"($	c #4D2E25",
"_$	c #342219",
":$	c #48362D",
"<$	c #B5A69E",
"[$	c #908782",
"}$	c #81796E",
"|$	c #7D6B5C",
"1$	c #9D6A56",
"2$	c #AB5538",
"3$	c #BF5F35",
"4$	c #CC6636",
"5$	c #C95D2D",
"6$	c #BC4B1E",
"7$	c #AD3D1B",
"8$	c #A3371C",
"9$	c #914732",
"0$	c #5A3726",
"a$	c #32231B",
"b$	c #412925",
"c$	c #998587",
"d$	c #BCB7B4",
"e$	c #AAA5A1",
"f$	c #81807B",
"g$	c #65605C",
"h$	c #917F73",
"i$	c #A0624A",
"j$	c #AC5230",
"k$	c #BD5D37",
"l$	c #B74D2B",
"m$	c #AC3E1F",
"n$	c #A43A22",
"o$	c #8F442F",
"p$	c #5C3A2F",
"q$	c #43322B",
"r$	c #423027",
"s$	c #A18B87",
"t$	c #BAB5B1",
"u$	c #8F8A86",
"v$	c #5A5C56",
"w$	c #94918C",
"x$	c #C4BAAD",
"y$	c #A37D67",
"z$	c #8E4E2F",
"A$	c #A24C2D",
"B$	c #A34629",
"C$	c #964226",
"D$	c #844B34",
"E$	c #5C4437",
"F$	c #50403A",
"G$	c #5B473E",
"H$	c #A7968B",
"I$	c #93938D",
"J$	c #9F9C96",
"K$	c #68615E",
"L$	c #A1A49D",
"M$	c #C6C6B9",
"N$	c #B4AB97",
"O$	c #927B66",
"P$	c #906C55",
"Q$	c #885240",
"R$	c #7A4735",
"S$	c #845A4A",
"T$	c #66544A",
"U$	c #706562",
"V$	c #8E7E77",
"W$	c #AF9D91",
"X$	c #84837E",
"Y$	c #8E8D88",
"Z$	c #847F7D",
"`$	c #ADA8A3",
" %	c #CCC7BD",
".%	c #ABA392",
"+%	c #AAA190",
"@%	c #B4A89E",
"#%	c #7F6B60",
"$%	c #574337",
"%%	c #5B423A",
"&%	c #998B83",
"*%	c #CBBEB8",
"=%	c #858686",
"-%	c #969797",
";%	c #87807B",
">%	c #BFB8B6",
",%	c #D1CCC6",
"'%	c #ACA295",
")%	c #B7AEA5",
"!%	c #F9F1E7",
"~%	c #8E7F77",
"{%	c #91908F",
"]%	c #9A9A9A",
"^%	c #959596",
"/%	c #ACA49D",
"(%	c #C9C3B9",
"_%	c #B0AD9F",
":%	c #B8B1A6",
"<%	c #898883",
"[%	c #9E9F9B",
"}%	c #868176",
"|%	c #A6A19A",
"1%	c #D1CCC3",
"2%	c #B3B09E",
"3%	c #CECBC0",
"4%	c #A3A39E",
"5%	c #999C98",
"6%	c #7F7E77",
"7%	c #9C9384",
"8%	c #CBC7BD",
"9%	c #BDB9B0",
"0%	c #CFCBC3",
"a%	c #807E7E",
"b%	c #BCBBB6",
"c%	c #9A988F",
"d%	c #979485",
"e%	c #C9C6B7",
"f%	c #BCBDB0",
"g%	c #CECEC5",
"h%	c #959790",
"i%	c #BAB7B6",
"j%	c #999290",
"k%	c #A29E93",
"l%	c #C7C3B6",
"m%	c #BFBEAE",
"n%	c #D8D9CE",
"o%	c #A5A4A0",
"p%	c #B1B0AB",
"q%	c #8E8A87",
"r%	c #9C9792",
"s%	c #C7C4B7",
"t%	c #C0BEB0",
"u%	c #D0CFC3",
"v%	c #AFB0AA",
"w%	c #B9B7B2",
"x%	c #97928E",
"y%	c #ADA9A3",
"z%	c #C7C2B9",
"A%	c #BDBBAF",
"B%	c #D9DCCE",
"C%	c #A7A7A1",
"D%	c #AAAAA4",
"E%	c #9E9B96",
"F%	c #ADA9A2",
"G%	c #CDC9C1",
"H%	c #C1BFB5",
"I%	c #D6D5CB",
"J%	c #B1AEAA",
"K%	c #989490",
"L%	c #B0ABA5",
"M%	c #C4C2B9",
"N%	c #D9DAD3",
"                                                                                            . + ",
"                                                                                          @ # $ ",
"                                                                                        % & * = ",
"                                                                                      - ; > , ' ",
"                                                                                    ) ! ~ { ] ^ ",
"                                                                                  / ( _ : < [   ",
"                                                                                } | 1 2 3 4     ",
"                                                                              5 6 7 8 9 0       ",
"                                                                            a b c d e f         ",
"                                                                          g h i j k l           ",
"                                                        m n o p q r   s 2 t u v w x             ",
"                                                      y z A B C D E F G H I J K L               ",
"                                                    M N O P Q R S T U V W X Y Z                 ",
"                                                  `  ...+.@.#.$.%.&.*.=.-.;.>.,.                ",
"                                                '.).!.~.{.].^./.(._.:.<.[.}.|.                  ",
"                                              1.2.3.4.5.6.7.8.9.0.a.b.c.d.e.f.                  ",
"                                            g.h.i.j.k.l.m.n.o.p.q.r.s.t.u.v.w.x.                ",
"                                          y.z.A.B.C.D.E.F.G.H.I.J.K.L.M.N.O.P.Q.                ",
"                                        R.S.T.U.V.W.X.Y.Z.`. +.+++@+#+$+%+&+*+=+-+              ",
"                                      ;+>+,+'+)+!+~+{+]+^+/+(+_+:+<+[+}+|+1+2+3+                ",
"                                    4+5+6+7+8+9+0+a+b+c+d+e+f+g+h+i+j+k+l+m+n+o+                ",
"                                  p+q+r+s+t+u+].v+w+x+y+z+A+B+C+D+E+F+G+H+I+J+                  ",
"                                K+L+M+N+O+P+Q+R+S+T+U+V+W+X+Y+Z+`+ @.@+@@@#@                    ",
"                              $@%@&@*@=@-@;@>@,@'@)@!@~@{@]@^@/@(@_@:@<@[@                      ",
"                          }@|@1@2@3@4@5@6@7@8@9@0@a@b@c@d@e@f@g@h@i@j@k@                        ",
"                          l@m@n@o@p@q@r@s@t@u@v@w@x@y@z@A@B@C@D@E@F@G@                          ",
"                        H@I@J@K@L@M@N@O@P@Q@R@S@T@U@V@W@X@Y@Z@`@ #.#                            ",
"                      +#@###$#%#&#*#=#-#;#>#,#'#)#!#~#{#]#^#/#(#_#                              ",
"                      :#<#[#}#|#1#2#3#4#5#6#7#8#9#0#a#b#c#d#e#f#                                ",
"                      g#h#i#j#k#l#m#n#o#p#q#r#s#t#u#v#w#x#y#z#                                  ",
"                      A#B#C#D#E#F#G#H#I#J#K#L#M#N#O#P#Q#R#S#                                    ",
"                        T#U#V#W#X#Y#Z#`# $.$+$@$#$$$%$&$*$                                      ",
"                        =$-$;$>$,$'$)$!$~${$]$^$/$($_$:$<$                                      ",
"                        [$}$|$1$2$3$4$5$6$7$8$9$0$a$b$c$                                        ",
"                      d$e$f$g$h$i$j$k$l$m$n$o$p$q$r$s$                                          ",
"                      t$u$v$w$x$y$z$A$B$C$D$E$F$G$H$                                            ",
"                    I$J$K$L$M$N$O$P$Q$R$S$T$U$V$W$                                              ",
"                  X$Y$Z$`$ %.%+%  @%#%$%%%T$&%*%                                                ",
"                =%-%;%>%,%'%)%      !%  ~%                                                      ",
"              {%]%^%/%(%_%:%                                                                    ",
"            <%[%}%|%1%2%3%                                                                      ",
"          4%5%6%7%8%9%0%                                                                        ",
"        a%b%c%d%e%f%g%                                                                          ",
"      h%i%j%k%l%m%n%                                                                            ",
"    o%p%q%r%s%t%u%                                                                              ",
"  v%w%x%y%z%A%B%                                                                                ",
"C%D%E%F%G%H%I%                                                                                  ",
"J%K%L%Y M%N%                                                                                    "};
